<svg width="1277" height="170" viewBox="0 0 1277 170" xmlns="http://www.w3.org/2000/svg"><title>center-logo-offset/white-orange/ btc-mag-logo</title><g fill="none" fill-rule="evenodd"><path d="M661.405 59.35c0-1.359-.847-1.868-1.869-1.359l-14.808 7.306c-1.022.51-1.873 2.039-1.873 3.228v66.92c0 1.359.851 1.868 1.873 1.359l14.808-7.302c1.022-.51 1.869-2.039 1.869-3.228V59.351zm25.705-12.907c0-1.36-.852-1.87-1.873-1.36l-14.809 7.306c-1.021.51-1.872 2.039-1.872 3.224v67.093c0 1.36.85 1.87 1.872 1.36l14.809-7.302c1.021-.51 1.873-2.039 1.873-3.228V46.443zm24.509-12.229c0-1.36-.852-1.869-1.873-1.36l-14.809 7.302c-1.021.51-1.873 2.039-1.873 3.228v66.924c0 1.359.852 1.869 1.873 1.359l14.809-7.306c1.021-.51 1.873-2.034 1.873-3.224V34.214z" fill="#FFA208"/><path d="M636.385 121.007c0-1.699-1.022-3.563-2.384-4.243l-63.83-31.593c-1.362-.68-2.384 0-2.384 1.7v13.927c0 1.699 1.022 3.563 2.384 4.243L634 136.804c1.362.68 2.384-.17 2.384-1.87v-13.927zm0-25.816c0-1.7-1.022-3.568-2.384-4.248l-63.83-31.592c-1.362-.68-2.384 0-2.384 1.699v13.927c0 1.7 1.022 3.568 2.384 4.248L634 110.817c1.362.68 2.384-.17 2.384-1.868V95.19zm0-25.986c0-1.7-1.022-3.568-2.384-4.248l-63.83-31.592c-1.362-.68-2.384.17-2.384 1.699V48.99c0 1.7 1.022 3.568 2.384 4.248L634 85c1.362.68 2.384-.17 2.384-1.869V69.205zM107.593 54.031h26.303c2.34 0 4.65.275 6.933.828 2.279.55 4.313 1.446 6.094 2.692 1.786 1.246 3.23 2.858 4.344 4.827 1.109 1.97 1.668 4.348 1.668 7.132 0 3.476-.996 6.343-2.986 8.604-1.987 2.26-4.589 3.886-7.806 4.87l-2.096.175c3.92.522 9.23 2.03 11.744 4.521 2.515 2.492 3.772 5.825 3.772 9.998 0 3.364-.672 6.187-2.017 8.478-1.345 2.287-3.113 4.13-5.304 5.52-2.196 1.39-4.71 2.391-7.544 3.001-2.838.606-5.72.91-8.64.91h-24.465V54.032zm11.05 25.041h11.922c3.685 0 6.492-.723 8.422-2.174 1.93-1.45 2.894-3.507 2.894-6.173 0-2.783-.995-4.753-2.982-5.911-1.99-1.16-5.09-1.739-9.299-1.739h-10.957v15.997zm0 27.302h12.01c1.405 0 2.924-.105 4.562-.305 1.637-.205 3.143-.623 4.518-1.263a8.833 8.833 0 0 0 3.418-2.78c.908-1.22 1.362-2.84 1.362-4.87 0-3.246-1.113-5.507-3.335-6.783-2.222-1.272-5.584-1.913-10.089-1.913h-12.446v17.914zm56.57-52.342h11.054v61.556h-11.054zm46.053 9.562h-19.034V54.03h49.123v9.563H232.32v51.994h-11.054V63.594zm88.248 4.87c-1.637-2.2-3.772-3.812-6.404-4.827-2.633-1.01-5.204-1.52-7.719-1.52-3.217 0-6.142.58-8.77 1.738-2.633 1.159-4.899 2.753-6.802 4.784-1.9 2.03-3.362 4.404-4.383 7.131-1.026 2.723-1.537 5.676-1.537 8.865 0 3.363.498 6.435 1.493 9.219.99 2.779 2.41 5.17 4.252 7.17 1.842 2 4.051 3.55 6.623 4.653 2.576 1.102 5.47 1.651 8.683 1.651 3.336 0 6.287-.654 8.862-1.956 2.572-1.303 4.65-3.028 6.226-5.171l8.862 6.173a28.388 28.388 0 0 1-10.089 7.955c-3.977 1.882-8.626 2.823-13.948 2.823-4.855 0-9.312-.798-13.377-2.392-4.064-1.59-7.557-3.825-10.482-6.691-2.925-2.871-5.203-6.291-6.84-10.26-1.638-3.973-2.458-8.36-2.458-13.174 0-4.927.864-9.375 2.588-13.343 1.725-3.973 4.095-7.35 7.103-10.13 3.013-2.783 6.566-4.926 10.661-6.434 4.091-1.507 8.535-2.26 13.333-2.26 1.986 0 4.065.187 6.226.566a31.59 31.59 0 0 1 6.23 1.738 30.06 30.06 0 0 1 5.614 2.91 18.086 18.086 0 0 1 4.474 4.174l-8.421 6.608zm20.964 16.171c0-4.927.834-9.375 2.502-13.343 1.663-3.973 3.977-7.35 6.928-10.13 2.955-2.783 6.461-4.926 10.525-6.434 4.065-1.507 8.496-2.26 13.29-2.26 4.854 0 9.329.753 13.424 2.26 4.09 1.508 7.631 3.651 10.613 6.435 2.982 2.78 5.304 6.156 6.972 10.129 1.668 3.968 2.501 8.416 2.501 13.343 0 4.814-.833 9.201-2.501 13.174-1.668 3.969-3.99 7.389-6.972 10.26-2.982 2.866-6.522 5.1-10.613 6.691-4.095 1.594-8.57 2.392-13.424 2.392-4.794 0-9.225-.798-13.29-2.392-4.064-1.59-7.57-3.825-10.525-6.691-2.951-2.871-5.265-6.291-6.928-10.26-1.668-3.973-2.502-8.36-2.502-13.174zm12.019 0c0 3.307.51 6.335 1.532 9.088 1.026 2.753 2.488 5.145 4.388 7.17 1.899 2.03 4.151 3.608 6.753 4.74 2.602 1.129 5.484 1.695 8.64 1.695 3.16 0 6.055-.566 8.688-1.695 2.628-1.132 4.898-2.71 6.797-4.74 1.899-2.025 3.361-4.417 4.387-7.17 1.022-2.753 1.533-5.781 1.533-9.088 0-3.189-.511-6.142-1.533-8.865-1.026-2.727-2.47-5.101-4.343-7.131-1.873-2.03-4.122-3.625-6.754-4.784-2.633-1.159-5.558-1.738-8.775-1.738-3.213 0-6.125.58-8.727 1.738-2.602 1.159-4.837 2.753-6.71 4.784-1.873 2.03-3.318 4.404-4.344 7.131-1.022 2.723-1.532 5.676-1.532 8.865zm74.212-30.603h11.054v61.556h-11.054zm33.506-.001h14.651l28.858 46.083h.179V54.03h11.05v61.557h-14.037l-29.472-47.56h-.175v47.56h-11.054V54.03z" fill="#FFF"/><path d="M786.11 101.412h.179l18.327-47.32h13.508v61.583h-8.684V64.182h-.174l-20.61 51.493h-5.528L762.61 64.182h-.18v51.493h-8.416V54.092h13.507l18.589 47.32zm51.834 14.263h-9.648l26.923-61.583h7.893l26.66 61.583h-9.822l-6.313-15.134H844.17l-6.225 15.134zm9.294-22.701h23.239l-11.574-28.88-11.665 28.88zM945.2 66.791c-1.873-2.03-4.257-3.655-7.151-4.87-2.89-1.22-6.121-1.825-9.688-1.825-3.628 0-6.902.649-9.823 1.956-2.925 1.302-5.409 3.088-7.456 5.35-2.043 2.26-3.624 4.883-4.733 7.871-1.113 2.985-1.667 6.16-1.667 9.524 0 3.42.554 6.639 1.667 9.653 1.11 3.015 2.69 5.642 4.733 7.872 2.047 2.235 4.562 3.987 7.544 5.263 2.981 1.276 6.312 1.917 9.997 1.917 2.925 0 5.614-.262 8.068-.784 2.458-.523 4.588-1.277 6.404-2.261V89.318h-13.77v-7.305h22.362v29.837c-3.274 1.738-6.841 3.071-10.7 4-3.855.927-8.068 1.393-12.626 1.393-4.855 0-9.312-.797-13.376-2.396-4.065-1.594-7.557-3.825-10.478-6.696-2.925-2.87-5.204-6.29-6.841-10.263-1.637-3.973-2.458-8.334-2.458-13.091 0-4.814.834-9.206 2.502-13.179 1.667-3.973 3.972-7.362 6.928-10.176 2.951-2.815 6.444-5.001 10.478-6.565 4.034-1.569 8.421-2.353 13.158-2.353 4.968 0 9.395.728 13.285 2.178 3.89 1.447 7.12 3.39 9.691 5.825l-6.05 6.264zm26.132 48.884h-9.648l26.923-61.583h7.893l26.662 61.583h-9.823l-6.313-15.134h-29.468l-6.226 15.134zm9.295-22.701h23.243l-11.578-28.88-11.665 28.88zm93.665-31.314l-35.082 46.36h35.606v7.655h-46.127v-7.567l34.99-46.448h-34.288v-7.568h44.901v7.568zm13.154-7.567h8.683v61.582h-8.683zm69.72 49.231h.179V54.092h8.679v61.583h-10.962l-32.8-50.278h-.174v50.278h-8.684V54.092h11.316zm34.816 4.696h32.45v7.655h-41.129V54.092h39.815v7.568h-31.136V80.1h29.294v7.393h-29.294v20.528z" fill="#FFA208"/></g></svg>