<?xml version="1.0" encoding="iso-8859-1"?>
<!-- Generator: Adobe Illustrator 21.0.0, SVG Export Plug-In . SVG Version: 6.00 Build 0)  -->
<svg version="1.1" id="&#x56FE;&#x5C42;_1" xmlns="http://www.w3.org/2000/svg" xmlns:xlink="http://www.w3.org/1999/xlink" x="0px"
	 y="0px" viewBox="0 0 927.788 177" style="enable-background:new 0 0 927.788 177;" xml:space="preserve">
<g id="MbQ5Cl.tif" style="display:none;">
	
		<image style="display:inline;overflow:visible;" width="386" height="364" id="Layer_0_1_" xlink:href="E4F4F19FC4DD1252.png"  transform="matrix(0.5 0 0 0.5 -307.6669 -49)">
	</image>
</g>
<g>
	<rect x="24.348" y="42" style="fill:#FFFFFF;" width="11.893" height="88.787"/>
	<linearGradient id="SVGID_1_" gradientUnits="userSpaceOnUse" x1="36.2411" y1="92.3933" x2="106.4784" y2="92.3933">
		<stop  offset="0" style="stop-color:#000000"/>
		<stop  offset="0.0407" style="stop-color:#242424"/>
		<stop  offset="0.0994" style="stop-color:#525252"/>
		<stop  offset="0.1638" style="stop-color:#7B7B7B"/>
		<stop  offset="0.2325" style="stop-color:#9F9F9F"/>
		<stop  offset="0.3065" style="stop-color:#BDBDBD"/>
		<stop  offset="0.3877" style="stop-color:#D5D5D5"/>
		<stop  offset="0.479" style="stop-color:#E8E8E8"/>
		<stop  offset="0.586" style="stop-color:#F5F5F5"/>
		<stop  offset="0.7236" style="stop-color:#FDFDFD"/>
		<stop  offset="1" style="stop-color:#FFFFFF"/>
	</linearGradient>
	<path style="fill:url(#SVGID_1_);" d="M80.455,135.655c4.037-0.753,7.741-2.196,11.115-4.326
		c5.325-3.461,9.139-8.829,11.448-16.107c2.307-7.099,3.461-14.643,3.461-22.629c0-8.074-1.198-15.662-3.594-22.762
		c-3.195-9.229-9.541-15.574-19.036-19.035C78.702,48.932,71.424,48,62.018,48H36.241v88.787h25.777
		C70.272,136.787,76.416,136.41,80.455,135.655z M43.249,63.84h18.769c7.276,0,12.6,1.51,15.974,4.526
		c2.307,2.13,4.17,5.371,5.591,9.717c1.418,4.349,2.13,9.141,2.13,14.376c0,4.705-0.599,9.141-1.797,13.311
		c-1.198,4.172-2.775,7.411-4.726,9.717c-3.195,3.64-8.918,5.458-17.172,5.458H43.249V63.84z"/>
</g>
<g>
	<path style="fill:none;" d="M133.902,105.746V91.331c-0.439,2.147-0.669,4.552-0.669,7.243
		C133.233,101.288,133.456,103.679,133.902,105.746z"/>
	<path style="fill:#FFFFFF;" d="M133.233,94.573c0-2.691,0.231-5.096,0.669-7.243V63.769c-4.233,1.707-7.831,4.206-10.786,7.509
		c-5.414,6.036-8.12,13.578-8.12,22.629c0,10.738,2.839,18.902,8.52,24.493c2.924,2.967,6.39,5.217,10.387,6.766v-23.42
		C133.456,99.679,133.233,97.288,133.233,94.573z"/>
	<linearGradient id="SVGID_2_" gradientUnits="userSpaceOnUse" x1="133.9022" y1="98.3733" x2="183.5497" y2="98.3733">
		<stop  offset="0" style="stop-color:#000000"/>
		<stop  offset="0.0407" style="stop-color:#242424"/>
		<stop  offset="0.0994" style="stop-color:#525252"/>
		<stop  offset="0.1638" style="stop-color:#7B7B7B"/>
		<stop  offset="0.2325" style="stop-color:#9F9F9F"/>
		<stop  offset="0.3065" style="stop-color:#BDBDBD"/>
		<stop  offset="0.3877" style="stop-color:#D5D5D5"/>
		<stop  offset="0.479" style="stop-color:#E8E8E8"/>
		<stop  offset="0.586" style="stop-color:#F5F5F5"/>
		<stop  offset="0.7236" style="stop-color:#FDFDFD"/>
		<stop  offset="1" style="stop-color:#FFFFFF"/>
	</linearGradient>
	<path style="fill:url(#SVGID_2_);" d="M173.699,123.465c6.566-6.034,9.851-14.11,9.851-24.227c0-9.584-2.619-17.525-7.854-23.827
		c-5.68-6.922-14.509-10.383-26.489-10.383c-5.796,0.046-10.895,0.963-15.304,2.741v23.561c1.732-8.474,6.87-12.725,15.437-12.725
		c10.649,0.179,15.974,6.745,15.974,19.701c0,13.224-5.281,19.833-15.84,19.833c-6.123,0-10.649-2.396-13.578-7.188
		c-0.886-1.415-1.549-3.151-1.993-5.206v23.42c4.372,1.696,9.381,2.552,15.038,2.552
		C159.411,131.718,167.663,128.969,173.699,123.465z"/>
</g>
<g>
	<path style="fill:none;" d="M210.984,103.111v-9.788c-0.267,1.435-0.415,2.957-0.415,4.585
		C210.57,99.777,210.71,101.51,210.984,103.111z"/>
	<path style="fill:#FFFFFF;" d="M210.57,97.908c0-1.628,0.148-3.15,0.415-4.585V67.952c-2.764,1.002-5.223,2.364-7.336,4.131
		c-7.454,6.123-11.182,14.732-11.182,25.824c0,6.834,1.286,12.602,3.86,17.305c3.345,6.292,8.239,10.709,14.658,13.284v-25.386
		C210.71,101.51,210.57,99.777,210.57,97.908z"/>
	<linearGradient id="SVGID_3_" gradientUnits="userSpaceOnUse" x1="210.9843" y1="90.3933" x2="257.9584" y2="90.3933">
		<stop  offset="0" style="stop-color:#000000"/>
		<stop  offset="0.0407" style="stop-color:#242424"/>
		<stop  offset="0.0994" style="stop-color:#525252"/>
		<stop  offset="0.1638" style="stop-color:#7B7B7B"/>
		<stop  offset="0.2325" style="stop-color:#9F9F9F"/>
		<stop  offset="0.3065" style="stop-color:#BDBDBD"/>
		<stop  offset="0.3877" style="stop-color:#D5D5D5"/>
		<stop  offset="0.479" style="stop-color:#E8E8E8"/>
		<stop  offset="0.586" style="stop-color:#F5F5F5"/>
		<stop  offset="0.7236" style="stop-color:#FDFDFD"/>
		<stop  offset="1" style="stop-color:#FFFFFF"/>
	</linearGradient>
	<path style="fill:url(#SVGID_3_);" d="M227.342,134.787h30.616V46h-17.704v23.96h-16.772c-4.729,0-8.881,0.68-12.498,1.992v25.371
		c0.562-3.023,1.7-5.628,3.446-7.795c2.929-3.814,7.232-5.724,12.912-5.724h12.912v37.139h-12.912
		c-3.994,0-7.455-1.065-10.383-3.195c-3.179-2.384-5.168-5.931-5.975-10.638v25.386c0.734,0.294,1.474,0.58,2.248,0.826
		C216.427,134.3,221.129,134.787,227.342,134.787z"/>
</g>
<g>
	<path style="fill:none;" d="M290.043,104.322V92.134c-0.359,1.886-0.539,3.988-0.539,6.306
		C289.504,100.586,289.69,102.541,290.043,104.322z"/>
	<rect x="277.125" y="139.972" style="fill:#FFFFFF;" width="12.918" height="13.844"/>
	<path style="fill:#FFFFFF;" d="M289.504,98.44c0-2.319,0.18-4.42,0.539-6.306V67.924c-2.356,0.861-4.622,2.065-6.795,3.627
		c-7.899,5.591-11.847,14.509-11.847,26.756c0,10.738,3.238,19.168,9.717,25.292c2.661,2.492,5.638,4.289,8.924,5.408v-24.685
		C289.69,102.541,289.504,100.586,289.504,98.44z"/>
	<linearGradient id="SVGID_4_" gradientUnits="userSpaceOnUse" x1="290.043" y1="113.8879" x2="337.5585" y2="113.8879">
		<stop  offset="0" style="stop-color:#000000"/>
		<stop  offset="0.0407" style="stop-color:#242424"/>
		<stop  offset="0.0994" style="stop-color:#525252"/>
		<stop  offset="0.1638" style="stop-color:#7B7B7B"/>
		<stop  offset="0.2325" style="stop-color:#9F9F9F"/>
		<stop  offset="0.3065" style="stop-color:#BDBDBD"/>
		<stop  offset="0.3877" style="stop-color:#D5D5D5"/>
		<stop  offset="0.479" style="stop-color:#E8E8E8"/>
		<stop  offset="0.586" style="stop-color:#F5F5F5"/>
		<stop  offset="0.7236" style="stop-color:#FDFDFD"/>
		<stop  offset="1" style="stop-color:#FFFFFF"/>
	</linearGradient>
	<path style="fill:url(#SVGID_4_);" d="M325.246,156.417c2.883-0.932,5.345-2.642,7.388-5.125c1.598-1.953,2.816-4.349,3.661-7.188
		c0.842-2.841,1.265-6.08,1.265-9.717V69.96H304.28c-4.882,0-8.898,0.422-12.047,1.265c-0.739,0.198-1.468,0.435-2.19,0.699v24.209
		c1.563-8.219,6.529-12.329,14.903-12.329h14.775v37.139h-13.844c-5.324,0-9.384-1.575-12.18-4.726
		c-1.802-2.029-3.014-4.667-3.655-7.896v24.685c0.109,0.037,0.216,0.08,0.327,0.116c3.416,1.111,7.742,1.664,12.979,1.664h16.373
		c0,3.727-0.599,6.19-1.797,7.388c-1.198,1.198-3.75,1.797-7.654,1.797h-20.227v13.844h22.623
		C318.167,157.815,322.361,157.349,325.246,156.417z"/>
</g>
<g>
	<path style="fill:none;" d="M373.172,112.956v-7.727h-2.735C370.714,108.575,371.633,111.143,373.172,112.956z"/>
	<path style="fill:none;" d="M373.172,91.385v-8.228c-1.446,1.755-2.362,4.489-2.735,8.228H373.172z"/>
	<path style="fill:#FFFFFF;" d="M370.436,101.229h2.735V87.385h-2.735c0.373-3.739,1.289-6.473,2.735-8.228V62.778
		c-2.207,0.414-4.193,0.978-5.93,1.711c-3.994,1.687-7.411,4.526-10.25,8.52c-4.172,5.857-6.256,12.691-6.256,20.5
		c0,12.07,3.948,21.165,11.847,27.288c2.839,2.13,5.878,3.661,9.118,4.593c0.469,0.135,0.963,0.257,1.471,0.372v-16.805
		C371.633,107.143,370.714,104.575,370.436,101.229z"/>
	<linearGradient id="SVGID_5_" gradientUnits="userSpaceOnUse" x1="373.1719" y1="74.5589" x2="407.9745" y2="74.5589">
		<stop  offset="0" style="stop-color:#000000"/>
		<stop  offset="0.0407" style="stop-color:#242424"/>
		<stop  offset="0.0994" style="stop-color:#525252"/>
		<stop  offset="0.1638" style="stop-color:#7B7B7B"/>
		<stop  offset="0.2325" style="stop-color:#9F9F9F"/>
		<stop  offset="0.3065" style="stop-color:#BDBDBD"/>
		<stop  offset="0.3877" style="stop-color:#D5D5D5"/>
		<stop  offset="0.479" style="stop-color:#E8E8E8"/>
		<stop  offset="0.586" style="stop-color:#F5F5F5"/>
		<stop  offset="0.7236" style="stop-color:#FDFDFD"/>
		<stop  offset="1" style="stop-color:#FFFFFF"/>
	</linearGradient>
	<path style="fill:url(#SVGID_5_);" d="M374.03,82.267c1.951-1.641,5.368-2.462,10.25-2.462h23.694V65.96h-25.025
		c-3.661,0-6.91,0.279-9.777,0.818v16.379C373.442,82.83,373.723,82.525,374.03,82.267z"/>
	<linearGradient id="SVGID_6_" gradientUnits="userSpaceOnUse" x1="373.1719" y1="121.8712" x2="407.9745" y2="121.8712">
		<stop  offset="0" style="stop-color:#000000"/>
		<stop  offset="0.0407" style="stop-color:#242424"/>
		<stop  offset="0.0994" style="stop-color:#525252"/>
		<stop  offset="0.1638" style="stop-color:#7B7B7B"/>
		<stop  offset="0.2325" style="stop-color:#9F9F9F"/>
		<stop  offset="0.3065" style="stop-color:#BDBDBD"/>
		<stop  offset="0.3877" style="stop-color:#D5D5D5"/>
		<stop  offset="0.479" style="stop-color:#E8E8E8"/>
		<stop  offset="0.586" style="stop-color:#F5F5F5"/>
		<stop  offset="0.7236" style="stop-color:#FDFDFD"/>
		<stop  offset="1" style="stop-color:#FFFFFF"/>
	</linearGradient>
	<path style="fill:url(#SVGID_6_);" d="M407.975,130.787v-13.844h-21.697c-5.415,0-9.318-0.886-11.714-2.662
		c-0.514-0.38-0.971-0.83-1.391-1.325v16.805c3.006,0.682,6.705,1.025,11.108,1.025H407.975z"/>
	<linearGradient id="SVGID_7_" gradientUnits="userSpaceOnUse" x1="373.1719" y1="98.3071" x2="407.9745" y2="98.3071">
		<stop  offset="0" style="stop-color:#000000"/>
		<stop  offset="0.0407" style="stop-color:#242424"/>
		<stop  offset="0.0994" style="stop-color:#525252"/>
		<stop  offset="0.1638" style="stop-color:#7B7B7B"/>
		<stop  offset="0.2325" style="stop-color:#9F9F9F"/>
		<stop  offset="0.3065" style="stop-color:#BDBDBD"/>
		<stop  offset="0.3877" style="stop-color:#D5D5D5"/>
		<stop  offset="0.479" style="stop-color:#E8E8E8"/>
		<stop  offset="0.586" style="stop-color:#F5F5F5"/>
		<stop  offset="0.7236" style="stop-color:#FDFDFD"/>
		<stop  offset="1" style="stop-color:#FFFFFF"/>
	</linearGradient>
	<rect x="373.172" y="91.385" style="fill:url(#SVGID_7_);" width="34.803" height="13.844"/>
</g>
<g>
	<rect x="489.439" y="42" style="fill:#FFA206;" width="11.669" height="88.787"/>
	<linearGradient id="SVGID_8_" gradientUnits="userSpaceOnUse" x1="501.1079" y1="90.3933" x2="570.6381" y2="90.3933">
		<stop  offset="0" style="stop-color:#000000"/>
		<stop  offset="0.0407" style="stop-color:#241701"/>
		<stop  offset="0.0994" style="stop-color:#523402"/>
		<stop  offset="0.1638" style="stop-color:#7B4E03"/>
		<stop  offset="0.2325" style="stop-color:#9F6504"/>
		<stop  offset="0.3065" style="stop-color:#BD7804"/>
		<stop  offset="0.3877" style="stop-color:#D58705"/>
		<stop  offset="0.479" style="stop-color:#E89305"/>
		<stop  offset="0.586" style="stop-color:#F59C06"/>
		<stop  offset="0.7236" style="stop-color:#FDA106"/>
		<stop  offset="1" style="stop-color:#FFA206"/>
	</linearGradient>
	<path style="fill:url(#SVGID_8_);" d="M508.341,101.109h15.175c6.566-0.087,11.581,0.799,15.042,2.662
		c2.749,1.598,4.812,3.773,6.189,6.523c1.375,2.751,2.284,6.701,2.729,11.847c0.71,6.39,1.375,10.605,1.997,12.646h21.165
		c-0.888-2.573-1.598-7.055-2.13-13.444c-0.267-3.814-0.645-6.7-1.132-8.652c-0.488-1.951-1.264-3.994-2.329-6.124
		c-1.421-2.662-3.018-4.68-4.792-6.057c-1.776-1.375-4.393-2.683-7.854-3.927c4.347-1.418,7.854-3.504,10.516-6.256
		c4.26-4.613,6.39-11.136,6.39-19.568c0-4.17-0.911-8.007-2.729-11.514c-1.82-3.504-4.416-6.323-7.787-8.453
		C553.91,47.597,545.257,46,532.833,46h-31.725v88.787h7.233V101.109z M508.341,61.84h26.489c3.372,0,5.812,0.266,7.321,0.799
		c4.26,1.51,6.39,4.971,6.39,10.383c0,4.881-1.421,8.299-4.26,10.25c-1.863,1.332-5.015,1.997-9.451,1.997h-26.489V61.84z"/>
</g>
<g>
	<rect x="585.147" y="65.96" style="fill:#FFA206;" width="10.692" height="13.844"/>
	<path style="fill:#FFA206;" d="M591.935,92.982c-3.461,1.244-6.235,3.573-8.319,6.988c-2.086,3.417-3.128,7.301-3.128,11.647
		c0,7.188,2.616,12.559,7.854,16.107c1.951,1.244,4.214,2.063,6.789,2.462c0.215,0.033,0.465,0.063,0.709,0.094V92.066
		C594.299,92.308,592.988,92.611,591.935,92.982z"/>
	<linearGradient id="SVGID_9_" gradientUnits="userSpaceOnUse" x1="595.8392" y1="102.3735" x2="646.6859" y2="102.3735">
		<stop  offset="0" style="stop-color:#000000"/>
		<stop  offset="0.0407" style="stop-color:#241701"/>
		<stop  offset="0.0994" style="stop-color:#523402"/>
		<stop  offset="0.1638" style="stop-color:#7B4E03"/>
		<stop  offset="0.2325" style="stop-color:#9F6504"/>
		<stop  offset="0.3065" style="stop-color:#BD7804"/>
		<stop  offset="0.3877" style="stop-color:#D58705"/>
		<stop  offset="0.479" style="stop-color:#E89305"/>
		<stop  offset="0.586" style="stop-color:#F59C06"/>
		<stop  offset="0.7236" style="stop-color:#FDA106"/>
		<stop  offset="1" style="stop-color:#FFA206"/>
	</linearGradient>
	<path style="fill:url(#SVGID_9_);" d="M646.645,134.787V98.313c0.532-14.11-4.127-23.029-13.977-26.756
		c-2.13-0.62-4.217-1.042-6.257-1.265c-2.042-0.22-5.77-0.333-11.182-0.333h-19.391v13.844h19.391c5.412,0,9.029,0.799,10.849,2.396
		c1.818,1.597,2.729,4.659,2.729,9.185h-21.831c-4.564,0-8.267,0.23-11.138,0.681v38.215c2.677,0.336,7.085,0.505,13.268,0.505
		H646.645z M600.787,119.612c-1.465-0.886-2.196-2.351-2.196-4.393c0-1.863,0.599-3.328,1.797-4.393s2.816-1.597,4.858-1.597h3.062
		h20.5v11.714h-20.5C604.758,120.943,602.251,120.5,600.787,119.612z"/>
</g>
<g>
	<rect x="663.282" y="42" style="fill:#FFA206;" width="13.17" height="88.787"/>
	<linearGradient id="SVGID_10_" gradientUnits="userSpaceOnUse" x1="676.4518" y1="90.3933" x2="729.4388" y2="90.3933">
		<stop  offset="0" style="stop-color:#000000"/>
		<stop  offset="0.0407" style="stop-color:#241701"/>
		<stop  offset="0.0994" style="stop-color:#523402"/>
		<stop  offset="0.1638" style="stop-color:#7B4E03"/>
		<stop  offset="0.2325" style="stop-color:#9F6504"/>
		<stop  offset="0.3065" style="stop-color:#BD7804"/>
		<stop  offset="0.3877" style="stop-color:#D58705"/>
		<stop  offset="0.479" style="stop-color:#E89305"/>
		<stop  offset="0.586" style="stop-color:#F59C06"/>
		<stop  offset="0.7236" style="stop-color:#FDA106"/>
		<stop  offset="1" style="stop-color:#FFA206"/>
	</linearGradient>
	<path style="fill:url(#SVGID_10_);" d="M705.878,133.788c3.194-0.666,6.3-1.93,9.317-3.793
		c9.495-5.857,14.243-15.352,14.243-28.486c0-5.412-0.932-10.383-2.795-14.909c-2.662-6.034-6.968-10.516-12.912-13.444
		c-4.35-2.13-9.983-3.195-16.905-3.195h-15.708V46h-4.667v88.787H692.3C698.158,134.787,702.683,134.454,705.878,133.788z
		 M681.119,83.804h13.179c11.269,0,16.905,6.08,16.905,18.236c0,5.414-1.421,9.984-4.26,13.711
		c-2.841,3.461-7.055,5.191-12.646,5.191h-13.179V83.804z"/>
</g>
<g>
	<rect x="743.282" y="42" style="fill:#FFA206;" width="13.17" height="88.787"/>
	<linearGradient id="SVGID_11_" gradientUnits="userSpaceOnUse" x1="756.4518" y1="90.3933" x2="809.4388" y2="90.3933">
		<stop  offset="0" style="stop-color:#000000"/>
		<stop  offset="0.0407" style="stop-color:#241701"/>
		<stop  offset="0.0994" style="stop-color:#523402"/>
		<stop  offset="0.1638" style="stop-color:#7B4E03"/>
		<stop  offset="0.2325" style="stop-color:#9F6504"/>
		<stop  offset="0.3065" style="stop-color:#BD7804"/>
		<stop  offset="0.3877" style="stop-color:#D58705"/>
		<stop  offset="0.479" style="stop-color:#E89305"/>
		<stop  offset="0.586" style="stop-color:#F59C06"/>
		<stop  offset="0.7236" style="stop-color:#FDA106"/>
		<stop  offset="1" style="stop-color:#FFA206"/>
	</linearGradient>
	<path style="fill:url(#SVGID_11_);" d="M785.878,133.788c3.194-0.666,6.3-1.93,9.317-3.793
		c9.495-5.857,14.243-15.352,14.243-28.486c0-5.412-0.932-10.383-2.795-14.909c-2.662-6.034-6.968-10.516-12.912-13.444
		c-4.35-2.13-9.983-3.195-16.905-3.195h-15.708V46h-4.667v88.787H772.3C778.158,134.787,782.683,134.454,785.878,133.788z
		 M761.119,83.804h13.179c11.269,0,16.905,6.08,16.905,18.236c0,5.414-1.421,9.984-4.26,13.711
		c-2.841,3.461-7.055,5.191-12.646,5.191h-13.179V83.804z"/>
</g>
<g>
	<rect x="821.952" y="42" style="fill:#FFA206;" width="5.976" height="17.305"/>
	<rect x="821.952" y="65.96" style="fill:#FFA206;" width="5.976" height="64.826"/>
	<linearGradient id="SVGID_12_" gradientUnits="userSpaceOnUse" x1="827.9277" y1="101.3735" x2="839.7885" y2="101.3735">
		<stop  offset="0" style="stop-color:#000000"/>
		<stop  offset="0.0407" style="stop-color:#241701"/>
		<stop  offset="0.0994" style="stop-color:#523402"/>
		<stop  offset="0.1638" style="stop-color:#7B4E03"/>
		<stop  offset="0.2325" style="stop-color:#9F6504"/>
		<stop  offset="0.3065" style="stop-color:#BD7804"/>
		<stop  offset="0.3877" style="stop-color:#D58705"/>
		<stop  offset="0.479" style="stop-color:#E89305"/>
		<stop  offset="0.586" style="stop-color:#F59C06"/>
		<stop  offset="0.7236" style="stop-color:#FDA106"/>
		<stop  offset="1" style="stop-color:#FFA206"/>
	</linearGradient>
	<rect x="827.928" y="68.96" style="fill:url(#SVGID_12_);" width="11.861" height="64.826"/>
	<linearGradient id="SVGID_13_" gradientUnits="userSpaceOnUse" x1="827.9277" y1="53.6523" x2="839.7885" y2="53.6523">
		<stop  offset="0" style="stop-color:#000000"/>
		<stop  offset="0.0407" style="stop-color:#241701"/>
		<stop  offset="0.0994" style="stop-color:#523402"/>
		<stop  offset="0.1638" style="stop-color:#7B4E03"/>
		<stop  offset="0.2325" style="stop-color:#9F6504"/>
		<stop  offset="0.3065" style="stop-color:#BD7804"/>
		<stop  offset="0.3877" style="stop-color:#D58705"/>
		<stop  offset="0.479" style="stop-color:#E89305"/>
		<stop  offset="0.586" style="stop-color:#F59C06"/>
		<stop  offset="0.7236" style="stop-color:#FDA106"/>
		<stop  offset="1" style="stop-color:#FFA206"/>
	</linearGradient>
	<rect x="827.928" y="45" style="fill:url(#SVGID_13_);" width="11.861" height="17.305"/>
</g>
<g>
	<path style="fill:#FFA206;" d="M862.151,42v23.96h-11.314v13.844h11.314v26.623c0,7.941,1.346,13.808,4.028,17.616V42H862.151z"/>
	<linearGradient id="SVGID_14_" gradientUnits="userSpaceOnUse" x1="866.1792" y1="90.3933" x2="896.4945" y2="90.3933">
		<stop  offset="0" style="stop-color:#000000"/>
		<stop  offset="0.0407" style="stop-color:#241701"/>
		<stop  offset="0.0994" style="stop-color:#523402"/>
		<stop  offset="0.1638" style="stop-color:#7B4E03"/>
		<stop  offset="0.2325" style="stop-color:#9F6504"/>
		<stop  offset="0.3065" style="stop-color:#BD7804"/>
		<stop  offset="0.3877" style="stop-color:#D58705"/>
		<stop  offset="0.479" style="stop-color:#E89305"/>
		<stop  offset="0.586" style="stop-color:#F59C06"/>
		<stop  offset="0.7236" style="stop-color:#FDA106"/>
		<stop  offset="1" style="stop-color:#FFA206"/>
	</linearGradient>
	<path style="fill:url(#SVGID_14_);" d="M883.582,134.787h12.912v-13.844h-7.056c-3.816,0-6.479-1.065-7.986-3.195
		c-0.978-1.418-1.465-4.879-1.465-10.383V83.804h16.507V69.96h-16.507V46h-13.808v82.043c0.286,0.405,0.581,0.795,0.897,1.153
		C870.358,132.923,875.862,134.787,883.582,134.787z"/>
</g>
<rect id="_x3C_&#x5207;&#x7247;_x3E_" style="fill:none;" width="927.788" height="177"/>
</svg>
