<?xml version="1.0" encoding="UTF-8" standalone="no"?>
<!DOCTYPE svg PUBLIC "-//W3C//DTD SVG 1.1//EN" "http://www.w3.org/Graphics/SVG/1.1/DTD/svg11.dtd">
<svg width="100%" height="100%" viewBox="0 0 460 65" version="1.1" xmlns="http://www.w3.org/2000/svg" xmlns:xlink="http://www.w3.org/1999/xlink" xml:space="preserve" xmlns:serif="http://www.serif.com/" style="fill-rule:evenodd;clip-rule:evenodd;stroke-linejoin:round;stroke-miterlimit:1.41421;">
    <g transform="matrix(1,0,0,1,-151.019,-1051.93)">
        <g transform="matrix(1.64155,0,0,2.03175,0,0)">
            <g transform="matrix(0.609181,0,0,0.492186,25.5741,-115.686)">
                <g transform="matrix(1,0,0,1,10,0)">
                    <g transform="matrix(0.223354,0,0,0.223354,249.857,1170.08)">
                        <path d="M825.885,578.122C834.41,578.122 842.349,579.507 849.702,582.278C857.055,585.049 863.449,588.832 868.884,593.627C874.319,598.423 878.528,604.017 881.512,610.411C884.496,616.805 885.988,623.625 885.988,630.872C885.988,638.971 885.135,646.217 883.43,652.611C881.725,659.005 878.848,665.186 874.798,671.153C870.749,677.121 865.367,683.195 858.654,689.376C851.94,695.557 843.681,702.483 833.878,710.156C828.123,714.632 822.315,718.894 816.454,722.944C810.593,726.993 804.839,731.149 799.191,735.412C793.543,739.674 788.055,744.203 782.726,748.999C777.398,753.794 772.39,759.176 767.701,765.143L862.97,765.143L853.379,804.786L706,804.786C707.918,791.358 711.221,779.743 715.91,769.939C720.599,760.135 726.407,751.237 733.334,743.244C740.26,735.252 748.093,727.792 756.831,720.866C765.569,713.939 775.054,706.533 785.284,698.647C794.875,691.187 803.027,684.74 809.741,679.305C816.454,673.871 821.889,668.862 826.045,664.28C830.201,659.697 833.238,655.382 835.156,651.332C837.074,647.283 838.034,643.02 838.034,638.544C838.034,633.003 836.062,628.367 832.119,624.638C828.176,620.908 823.114,619.043 816.934,619.043C808.195,619.043 799.67,620.908 791.358,624.638C783.046,628.367 773.988,633.962 764.184,641.422L747.88,606.575C760.667,596.131 773.455,588.779 786.243,584.516C799.031,580.253 812.245,578.122 825.885,578.122Z" style="fill:rgb(247,147,26);fill-rule:nonzero;"/>
                    </g>
                    <g transform="matrix(0.223354,0,0,0.223354,248.69,1170.08)">
                        <path d="M963.674,768.34C970.494,768.34 976.781,766.316 982.536,762.266C988.29,758.217 993.352,752.888 997.721,746.281C1002.09,739.674 1005.93,732.162 1009.23,723.743C1012.53,715.324 1015.25,706.746 1017.38,698.008C1019.51,689.269 1021.11,680.744 1022.18,672.432C1023.24,664.12 1023.78,656.767 1023.78,650.373C1023.78,639.503 1022.12,631.511 1018.82,626.396C1015.52,621.281 1010.46,618.723 1003.63,618.723C996.602,618.723 990.208,620.748 984.454,624.797C978.699,628.847 973.584,634.175 969.108,640.782C964.633,647.389 960.743,654.955 957.439,663.48C954.136,672.006 951.419,680.637 949.287,689.376C947.156,698.114 945.557,706.639 944.492,714.951C943.426,723.263 942.893,730.616 942.893,737.01C942.893,748.093 944.598,756.085 948.008,760.987C951.419,765.889 956.64,768.34 963.674,768.34ZM956.321,809.261C945.877,809.261 937.032,807.396 929.786,803.667C922.539,799.937 916.625,794.982 912.043,788.801C907.461,782.62 904.157,775.64 902.132,767.861C900.108,760.082 899.095,752.036 899.095,743.724C899.095,719.427 901.813,697.155 907.247,676.908C912.682,656.66 920.248,639.184 929.946,624.478C939.643,609.772 951.312,598.369 964.952,590.27C978.593,582.171 993.725,578.122 1010.35,578.122C1020.79,578.122 1029.64,579.987 1036.88,583.717C1044.13,587.446 1050.04,592.402 1054.63,598.582C1059.21,604.763 1062.51,611.743 1064.54,619.522C1066.56,627.302 1067.57,635.347 1067.57,643.659C1067.57,667.956 1064.86,690.228 1059.42,710.476C1053.99,730.723 1046.42,748.2 1036.72,762.906C1027.03,777.611 1015.36,789.014 1001.72,797.113C988.077,805.212 972.945,809.261 956.321,809.261Z" style="fill:rgb(247,147,26);fill-rule:nonzero;"/>
                    </g>
                    <g transform="matrix(0.223354,0,0,0.223354,247.342,1170.15)">
                        <path d="M1097.94,629.273C1104.77,626.716 1111.9,623.785 1119.37,620.482C1126.82,617.178 1134.23,613.555 1141.58,609.612C1148.94,605.669 1156.13,601.513 1163.16,597.144C1170.2,592.775 1176.59,588.139 1182.35,583.237L1215.59,583.237L1162.2,804.786L1114.57,804.786L1152.93,645.258C1145.47,649.52 1137.37,653.41 1128.64,656.927C1119.9,660.443 1111.59,663.48 1103.7,666.038L1097.94,629.273Z" style="fill:rgb(247,147,26);fill-rule:nonzero;"/>
                    </g>
                    <g transform="matrix(0.223354,0,0,0.223354,245.642,1170.15)">
                        <path d="M1236.57,767.95C1248.5,767.647 1259.68,766.764 1270.1,765.303C1281.5,763.705 1291.95,760.881 1301.43,756.831C1310.91,752.782 1319.23,747.347 1326.37,740.527C1333.51,733.707 1339.42,724.862 1344.11,713.992C1338.57,716.976 1332.12,719.161 1324.77,720.546C1317.42,721.931 1310.54,722.624 1304.15,722.624C1296.26,722.624 1288.86,721.398 1281.93,718.948C1275,716.497 1268.93,712.767 1263.71,707.758C1258.49,702.75 1254.38,696.569 1251.4,689.216C1248.41,681.863 1246.92,673.178 1246.92,663.161C1246.92,649.52 1249.16,637.372 1253.64,626.716C1258.11,616.059 1264.19,607.108 1271.86,599.861C1279.53,592.615 1288.48,587.127 1298.71,583.397C1308.94,579.667 1319.71,577.802 1331,577.802C1340.81,577.802 1350.02,579.507 1358.66,582.917C1367.29,586.328 1374.75,591.283 1381.04,597.783C1387.32,604.284 1392.28,612.383 1395.9,622.08C1399.52,631.777 1401.34,643.02 1401.34,655.808C1401.34,674.563 1398.14,692.946 1391.75,710.955C1385.35,728.965 1375.55,745.003 1362.33,759.069C1349.12,773.136 1332.39,784.485 1312.14,793.117C1291.89,801.748 1267.92,806.064 1240.21,806.064L1234.3,806.064C1232.06,806.064 1229.77,805.958 1227.42,805.745L1236.57,767.95ZM1292.32,659.964C1292.32,670.194 1295.09,677.227 1300.63,681.064C1306.17,684.9 1312.78,686.818 1320.45,686.818C1325.78,686.818 1331.16,686.126 1336.6,684.74C1342.03,683.355 1347.09,681.703 1351.78,679.785C1354.55,671.686 1355.94,663.374 1355.94,654.849C1355.94,644.619 1353.59,635.827 1348.91,628.474C1344.22,621.121 1336.97,617.444 1327.17,617.444C1316.94,617.444 1308.57,621.174 1302.07,628.634C1295.57,636.093 1292.32,646.537 1292.32,659.964Z" style="fill:rgb(247,147,26);fill-rule:nonzero;"/>
                    </g>
                </g>
                <g transform="matrix(1,0,0,1,-180.566,969.466)">
                    <g>
                        <g transform="matrix(1,0,0,1,137.645,-734.421)">
                            <circle cx="183.956" cy="1083.93" r="24.433" style="fill:white;"/>
                        </g>
                        <g transform="matrix(1,0,0,1,289.607,317.505)">
                            <path d="M63.033,39.745C58.759,56.888 41.396,67.321 24.251,63.046C7.113,58.772 -3.32,41.408 0.956,24.266C5.228,7.121 22.591,-3.313 39.731,0.961C56.874,5.235 67.306,22.601 63.033,39.745ZM46.103,27.445C46.74,23.187 43.498,20.898 39.065,19.371L40.503,13.603L36.992,12.728L35.592,18.344C34.669,18.114 33.721,17.897 32.779,17.682L34.189,12.029L30.68,11.154L29.241,16.92C28.477,16.746 27.727,16.574 26.999,16.393L27.003,16.375L22.161,15.166L21.227,18.916C21.227,18.916 23.832,19.513 23.777,19.55C25.199,19.905 25.456,20.846 25.413,21.592L23.775,28.163C23.873,28.188 24,28.224 24.14,28.28C24.023,28.251 23.898,28.219 23.769,28.188L21.473,37.393C21.299,37.825 20.858,38.473 19.864,38.227C19.899,38.278 17.312,37.59 17.312,37.59L15.569,41.609L20.138,42.748C20.988,42.961 21.821,43.184 22.641,43.394L21.188,49.228L24.695,50.103L26.134,44.331C27.092,44.591 28.022,44.831 28.932,45.057L27.498,50.802L31.009,51.677L32.462,45.854C38.449,46.987 42.951,46.53 44.846,41.115C46.373,36.755 44.77,34.24 41.62,32.6C43.914,32.071 45.641,30.562 46.103,27.445ZM38.081,38.694C36.996,43.054 29.655,40.697 27.275,40.106L29.203,32.377C31.583,32.971 39.215,34.147 38.081,38.694ZM39.167,27.382C38.177,31.348 32.067,29.333 30.085,28.839L31.833,21.829C33.815,22.323 40.198,23.245 39.167,27.382Z" style="fill:rgb(247,147,26);fill-rule:nonzero;"/>
                        </g>
                    </g>
                    <path d="M383.38,336.87C385.975,336.87 388.217,337.335 390.101,338.248C391.994,339.17 393.556,340.412 394.809,341.974C396.045,343.544 396.965,345.379 397.559,347.482C398.149,349.591 398.445,351.858 398.445,354.285C398.445,358.013 397.762,361.535 396.383,364.855C395.004,368.18 393.133,371.064 390.753,373.524C388.375,375.981 385.567,377.918 382.329,379.349C379.096,380.781 375.581,381.497 371.807,381.497C371.319,381.497 370.461,381.483 369.249,381.458C368.037,381.433 366.644,381.308 365.084,381.097C363.514,380.878 361.854,380.554 360.101,380.12C358.349,379.694 356.685,379.097 355.118,378.339L369.13,319.463L381.68,317.518L376.663,338.411C377.737,337.927 378.819,337.552 379.899,337.279C380.98,337.01 382.14,336.87 383.38,336.87ZM372.853,371.541C374.743,371.541 376.524,371.076 378.197,370.163C379.875,369.249 381.323,368.015 382.536,366.478C383.749,364.934 384.709,363.195 385.409,361.252C386.109,359.309 386.463,357.282 386.463,355.173C386.463,352.582 386.03,350.561 385.167,349.1C384.304,347.645 382.707,346.913 380.388,346.913C379.628,346.913 378.649,347.058 377.435,347.317C376.217,347.592 375.127,348.163 374.15,349.022L368.808,371.21C369.13,371.267 369.415,371.321 369.658,371.372C369.896,371.427 370.159,371.466 370.421,371.493C370.698,371.524 371.015,371.54 371.398,371.54C371.781,371.54 372.26,371.541 372.853,371.541Z" style="fill:rgb(77,77,77);fill-rule:nonzero;"/>
                    <path d="M411.46,380.37L399.473,380.37L409.596,337.773L421.665,337.773L411.46,380.37ZM417.293,332.583C415.62,332.583 414.103,332.085 412.757,331.087C411.4,330.095 410.728,328.568 410.728,326.51C410.728,325.378 410.958,324.316 411.414,323.314C411.877,322.314 412.482,321.453 413.24,320.721C413.997,319.995 414.874,319.415 415.87,318.978C416.872,318.548 417.938,318.333 419.074,318.333C420.746,318.333 422.255,318.831 423.606,319.829C424.952,320.832 425.629,322.359 425.629,324.406C425.629,325.542 425.4,326.608 424.94,327.608C424.483,328.608 423.878,329.469 423.12,330.201C422.369,330.928 421.484,331.506 420.49,331.939C419.487,332.376 418.425,332.583 417.293,332.583Z" style="fill:rgb(77,77,77);fill-rule:nonzero;"/>
                    <path d="M432.17,327.16L444.725,325.215L441.642,337.771L455.088,337.771L452.66,347.649L439.295,347.649L435.735,362.549C435.407,363.791 435.221,364.951 435.169,366.029C435.11,367.112 435.247,368.042 435.571,368.825C435.893,369.61 436.472,370.215 437.312,370.643C438.148,371.078 439.345,371.297 440.915,371.297C442.208,371.297 443.468,371.174 444.686,370.93C445.897,370.69 447.124,370.356 448.366,369.919L449.26,379.155C447.64,379.749 445.886,380.26 443.996,380.69C442.103,381.126 439.862,381.336 437.272,381.336C433.548,381.336 430.661,380.783 428.604,379.682C426.55,378.573 425.098,377.058 424.229,375.14C423.372,373.229 422.989,371.026 423.096,368.544C423.207,366.056 423.582,363.441 424.229,360.687L432.17,327.16Z" style="fill:rgb(77,77,77);fill-rule:nonzero;"/>
                    <path d="M454.56,363.36C454.56,359.691 455.154,356.231 456.341,352.992C457.526,349.75 459.233,346.915 461.448,344.482C463.655,342.061 466.344,340.143 469.509,338.735C472.659,337.335 476.186,336.629 480.073,336.629C482.506,336.629 484.679,336.859 486.591,337.32C488.511,337.785 490.248,338.386 491.819,339.14L487.685,348.54C486.605,348.102 485.484,347.716 484.325,347.366C483.165,347.009 481.749,346.837 480.074,346.837C476.073,346.837 472.91,348.216 470.556,350.965C468.211,353.716 467.03,357.419 467.03,362.064C467.03,364.817 467.624,367.043 468.816,368.746C470.002,370.449 472.193,371.296 475.374,371.296C476.944,371.296 478.459,371.132 479.91,370.812C481.372,370.488 482.663,370.08 483.8,369.598L484.695,379.234C483.179,379.822 481.507,380.353 479.673,380.818C477.835,381.267 475.647,381.5 473.11,381.5C469.761,381.5 466.926,381.01 464.607,380.045C462.287,379.065 460.37,377.764 458.86,376.116C457.342,374.464 456.252,372.535 455.578,370.321C454.904,368.109 454.56,365.785 454.56,363.36Z" style="fill:rgb(77,77,77);fill-rule:nonzero;"/>
                    <path d="M507.81,381.5C504.949,381.5 502.464,381.064 500.356,380.201C498.254,379.338 496.513,378.127 495.136,376.557C493.757,374.995 492.725,373.144 492.018,371.011C491.311,368.879 490.971,366.518 490.971,363.931C490.971,360.686 491.492,357.442 492.545,354.207C493.593,350.965 495.148,348.052 497.206,345.463C499.248,342.87 501.767,340.75 504.733,339.097C507.696,337.455 511.104,336.629 514.932,336.629C517.741,336.629 520.213,337.066 522.35,337.929C524.477,338.79 526.229,340.011 527.614,341.573C528.984,343.143 530.025,344.986 530.725,347.122C531.43,349.25 531.778,351.617 531.778,354.206C531.778,357.441 531.264,360.685 530.244,363.93C529.223,367.159 527.708,370.079 525.708,372.674C523.712,375.263 521.216,377.382 518.218,379.028C515.224,380.674 511.752,381.5 507.81,381.5ZM513.801,346.838C512.024,346.838 510.453,347.354 509.108,348.373C507.758,349.404 506.624,350.7 505.71,352.263C504.786,353.833 504.101,355.545 503.638,357.406C503.179,359.271 502.954,361.034 502.954,362.709C502.954,365.412 503.39,367.517 504.247,369.032C505.116,370.539 506.677,371.297 508.946,371.297C510.729,371.297 512.292,370.785 513.645,369.755C514.987,368.732 516.122,367.435 517.043,365.869C517.961,364.307 518.652,362.59 519.115,360.726C519.568,358.867 519.799,357.094 519.799,355.422C519.799,352.726 519.365,350.616 518.5,349.103C517.636,347.596 516.068,346.838 513.801,346.838Z" style="fill:rgb(77,77,77);fill-rule:nonzero;"/>
                    <path d="M544.84,380.37L532.843,380.37L542.966,337.773L555.041,337.773L544.84,380.37ZM550.664,332.583C548.992,332.583 547.476,332.085 546.132,331.087C544.782,330.095 544.104,328.568 544.104,326.51C544.104,325.378 544.337,324.316 544.794,323.314C545.251,322.314 545.86,321.453 546.618,320.721C547.371,319.995 548.256,319.415 549.25,318.978C550.246,318.548 551.312,318.333 552.444,318.333C554.12,318.333 555.634,318.831 556.982,319.829C558.331,320.832 559.012,322.359 559.012,324.406C559.012,325.542 558.77,326.608 558.317,327.608C557.864,328.608 557.255,329.469 556.5,330.201C555.74,330.928 554.866,331.506 553.87,331.939C552.866,332.376 551.802,332.583 550.664,332.583Z" style="fill:rgb(77,77,77);fill-rule:nonzero;"/>
                    <path d="M563.68,339.71C564.59,339.444 565.606,339.124 566.711,338.776C567.82,338.428 569.059,338.104 570.443,337.812C571.812,337.511 573.357,337.267 575.056,337.078C576.755,336.885 578.691,336.791 580.842,336.791C587.164,336.791 591.522,338.632 593.928,342.303C596.332,345.974 596.748,350.998 595.188,357.366L589.674,380.366L577.608,380.366L582.952,357.85C583.278,356.444 583.534,355.085 583.723,353.757C583.914,352.441 583.903,351.281 583.68,350.277C583.467,349.285 582.965,348.473 582.186,347.844C581.395,347.225 580.2,346.914 578.579,346.914C577.016,346.914 575.426,347.082 573.803,347.406L565.946,380.365L553.875,380.365L563.68,339.71Z" style="fill:rgb(77,77,77);fill-rule:nonzero;"/>
                </g>
            </g>
        </g>
    </g>
</svg>
